<?xml version="1.0" encoding="UTF-8"?>
<svg version="1.1" xmlns="http://www.w3.org/2000/svg" width="1169" height="428">
<path d="M0 0 C141.24 0 282.48 0 428 0 C428 141.24 428 282.48 428 428 C286.76 428 145.52 428 0 428 C0 286.76 0 145.52 0 0 Z M53 54 C53 106.8 53 159.6 53 214 C70.82 214 88.64 214 107 214 C107 231.82 107 249.64 107 268 C89.18 268 71.36 268 53 268 C53 303.31 53 338.62 53 375 C159.26 375 265.52 375 375 375 C375 339.69 375 304.38 375 268 C357.18 268 339.36 268 321 268 C321 250.18 321 232.36 321 214 C338.82 214 356.64 214 375 214 C375 161.2 375 108.4 375 54 C268.74 54 162.48 54 53 54 Z " fill="#FFFFFF" transform="translate(0,0)"/>
<path d="M0 0 C40.26 0 80.52 0 122 0 C122 23.1 122 46.2 122 70 C116.39 70 110.78 70 105 70 C105 75.61 105 81.22 105 87 C110.61 87 116.22 87 122 87 C122 115.71 122 144.42 122 174 C104.51 174 87.02 174 69 174 C69 151.23 69 128.46 69 105 C63.72 105 58.44 105 53 105 C53 127.77 53 150.54 53 174 C35.51 174 18.02 174 0 174 C0 116.58 0 59.16 0 0 Z M53 35 C53 46.22 53 57.44 53 69 C58.28 69 63.56 69 69 69 C69 57.78 69 46.56 69 35 C63.72 35 58.44 35 53 35 Z " fill="#FFFFFF" transform="translate(608,26)"/>
<path d="M0 0 C17.49 0 34.98 0 53 0 C53 22.77 53 45.54 53 69 C58.28 69 63.56 69 69 69 C69 46.23 69 23.46 69 0 C86.49 0 103.98 0 122 0 C122 57.42 122 114.84 122 174 C104.51 174 87.02 174 69 174 C69 151.23 69 128.46 69 105 C63.72 105 58.44 105 53 105 C53 127.77 53 150.54 53 174 C35.51 174 18.02 174 0 174 C0 116.58 0 59.16 0 0 Z " fill="#FFFFFF" transform="translate(1047,26)"/>
<path d="M0 0 C34.65 0 69.3 0 105 0 C105 5.61 105 11.22 105 17 C110.61 17 116.22 17 122 17 C122 63.2 122 109.4 122 157 C116.39 157 110.78 157 105 157 C105 162.61 105 168.22 105 174 C70.35 174 35.7 174 0 174 C0 116.58 0 59.16 0 0 Z M53 35 C53 69.32 53 103.64 53 139 C58.28 139 63.56 139 69 139 C69 104.68 69 70.36 69 35 C63.72 35 58.44 35 53 35 Z " fill="#FFFFFF" transform="translate(462,26)"/>
<path d="M0 0 C40.26 0 80.52 0 122 0 C122 11.55 122 23.1 122 35 C99.23 35 76.46 35 53 35 C53 46.22 53 57.44 53 69 C75.77 69 98.54 69 122 69 C122 103.65 122 138.3 122 174 C81.74 174 41.48 174 0 174 C0 162.45 0 150.9 0 139 C22.77 139 45.54 139 69 139 C69 127.78 69 116.56 69 105 C46.23 105 23.46 105 0 105 C0 70.35 0 35.7 0 0 Z " fill="#FFFFFF" transform="translate(901,26)"/>
<path d="M0 0 C40.26 0 80.52 0 122 0 C122 57.42 122 114.84 122 174 C81.74 174 41.48 174 0 174 C0 162.45 0 150.9 0 139 C22.77 139 45.54 139 69 139 C69 127.78 69 116.56 69 105 C51.84 105 34.68 105 17 105 C17 93.12 17 81.24 17 69 C34.16 69 51.32 69 69 69 C69 57.78 69 46.56 69 35 C46.23 35 23.46 35 0 35 C0 23.45 0 11.9 0 0 Z " fill="#FFFFFF" transform="translate(755,26)"/>
<path d="M0 0 C33.66 0 67.32 0 102 0 C102 47.85 102 95.7 102 145 C68.34 145 34.68 145 0 145 C0 97.15 0 49.3 0 0 Z M44 29 C44 57.71 44 86.42 44 116 C48.62 116 53.24 116 58 116 C58 87.29 58 58.58 58 29 C53.38 29 48.76 29 44 29 Z " fill="#FFFFFF" transform="translate(1043,236)"/>
<path d="M0 0 C29.04 0 58.08 0 88 0 C88 4.62 88 9.24 88 14 C92.62 14 97.24 14 102 14 C102 52.61 102 91.22 102 131 C97.38 131 92.76 131 88 131 C88 135.62 88 140.24 88 145 C58.96 145 29.92 145 0 145 C0 97.15 0 49.3 0 0 Z M44 29 C44 57.71 44 86.42 44 116 C48.62 116 53.24 116 58 116 C58 87.29 58 58.58 58 29 C53.38 29 48.76 29 44 29 Z " fill="#FFFFFF" transform="translate(856,236)"/>
<path d="M0 0 C14.52 0 29.04 0 44 0 C44 38.28 44 76.56 44 116 C48.62 116 53.24 116 58 116 C58 77.72 58 39.44 58 0 C72.52 0 87.04 0 102 0 C102 47.85 102 95.7 102 145 C68.34 145 34.68 145 0 145 C0 97.15 0 49.3 0 0 Z " fill="#FFFFFF" transform="translate(734,236)"/>
<path d="M0 0 C33.66 0 67.32 0 102 0 C102 9.57 102 19.14 102 29 C82.86 29 63.72 29 44 29 C44 38.57 44 48.14 44 58 C63.14 58 82.28 58 102 58 C102 86.71 102 115.42 102 145 C68.34 145 34.68 145 0 145 C0 135.43 0 125.86 0 116 C19.14 116 38.28 116 58 116 C58 106.43 58 96.86 58 87 C38.86 87 19.72 87 0 87 C0 58.29 0 29.58 0 0 Z " fill="#FFFFFF" transform="translate(490,236)"/>
<path d="M0 0 C70.62 0 141.24 0 214 0 C214 17.49 214 34.98 214 53 C143.38 53 72.76 53 0 53 C0 35.51 0 18.02 0 0 Z " fill="#FFFFFF" transform="translate(107,268)"/>
<path d="M0 0 C33.66 0 67.32 0 102 0 C102 9.57 102 19.14 102 29 C92.43 29 82.86 29 73 29 C73 67.28 73 105.56 73 145 C58.48 145 43.96 145 29 145 C29 106.72 29 68.44 29 29 C19.43 29 9.86 29 0 29 C0 19.43 0 9.86 0 0 Z " fill="#FFFFFF" transform="translate(612,236)"/>
<path d="M0 0 C14.52 0 29.04 0 44 0 C44 47.85 44 95.7 44 145 C29.48 145 14.96 145 0 145 C0 97.15 0 49.3 0 0 Z " fill="#FFFFFF" transform="translate(979,236)"/>
</svg>
